<mxfile host="app.diagrams.net" modified="2023-02-09T13:58:37.472Z" agent="5.0 (Windows NT 10.0; Win64; x64) AppleWebKit/537.36 (KHTML, like Gecko) Chrome/109.0.0.0 Safari/537.36 Edg/109.0.1518.78" etag="acRzghJ6swXwxovau_V-" version="20.8.19" type="github">
  <diagram name="第 1 页" id="M-jIPIIDNPA0ZWLjcTNw">
    <mxGraphModel dx="1436" dy="874" grid="1" gridSize="10" guides="1" tooltips="1" connect="1" arrows="1" fold="1" page="1" pageScale="1" pageWidth="3300" pageHeight="4681" math="0" shadow="0">
      <root>
        <mxCell id="0" />
        <mxCell id="1" parent="0" />
        <mxCell id="JOWomHwI1RXDopmt0TdF-1" value="" style="rounded=0;whiteSpace=wrap;html=1;" vertex="1" parent="1">
          <mxGeometry x="150" y="80" width="310" height="60" as="geometry" />
        </mxCell>
        <mxCell id="JOWomHwI1RXDopmt0TdF-30" value="" style="edgeStyle=orthogonalEdgeStyle;rounded=0;orthogonalLoop=1;jettySize=auto;html=1;startArrow=classic;startFill=1;endArrow=none;endFill=0;" edge="1" parent="1" source="JOWomHwI1RXDopmt0TdF-2" target="JOWomHwI1RXDopmt0TdF-1">
          <mxGeometry relative="1" as="geometry" />
        </mxCell>
        <mxCell id="JOWomHwI1RXDopmt0TdF-32" style="edgeStyle=orthogonalEdgeStyle;rounded=0;orthogonalLoop=1;jettySize=auto;html=1;startArrow=none;startFill=0;endArrow=classic;endFill=1;" edge="1" parent="1" source="JOWomHwI1RXDopmt0TdF-2">
          <mxGeometry relative="1" as="geometry">
            <mxPoint x="305" y="290" as="targetPoint" />
          </mxGeometry>
        </mxCell>
        <mxCell id="JOWomHwI1RXDopmt0TdF-2" value="" style="rounded=0;whiteSpace=wrap;html=1;" vertex="1" parent="1">
          <mxGeometry x="190" y="200" width="230" height="60" as="geometry" />
        </mxCell>
        <mxCell id="JOWomHwI1RXDopmt0TdF-31" style="edgeStyle=orthogonalEdgeStyle;rounded=0;orthogonalLoop=1;jettySize=auto;html=1;entryX=0.5;entryY=0;entryDx=0;entryDy=0;startArrow=none;startFill=0;endArrow=none;endFill=0;" edge="1" parent="1" source="JOWomHwI1RXDopmt0TdF-4" target="JOWomHwI1RXDopmt0TdF-5">
          <mxGeometry relative="1" as="geometry">
            <Array as="points">
              <mxPoint x="120" y="290" />
              <mxPoint x="465" y="290" />
            </Array>
          </mxGeometry>
        </mxCell>
        <mxCell id="JOWomHwI1RXDopmt0TdF-4" value="" style="rounded=0;whiteSpace=wrap;html=1;" vertex="1" parent="1">
          <mxGeometry x="30" y="320" width="210" height="60" as="geometry" />
        </mxCell>
        <mxCell id="JOWomHwI1RXDopmt0TdF-20" style="edgeStyle=orthogonalEdgeStyle;rounded=0;orthogonalLoop=1;jettySize=auto;html=1;endArrow=none;endFill=0;" edge="1" parent="1" source="JOWomHwI1RXDopmt0TdF-5">
          <mxGeometry relative="1" as="geometry">
            <mxPoint x="670" y="350" as="targetPoint" />
            <Array as="points">
              <mxPoint x="590" y="350" />
              <mxPoint x="590" y="350" />
            </Array>
          </mxGeometry>
        </mxCell>
        <mxCell id="JOWomHwI1RXDopmt0TdF-5" value="" style="rounded=0;whiteSpace=wrap;html=1;" vertex="1" parent="1">
          <mxGeometry x="360" y="320" width="210" height="60" as="geometry" />
        </mxCell>
        <mxCell id="JOWomHwI1RXDopmt0TdF-22" style="edgeStyle=orthogonalEdgeStyle;rounded=0;orthogonalLoop=1;jettySize=auto;html=1;endArrow=none;endFill=0;startArrow=classic;startFill=1;exitX=1;exitY=0.5;exitDx=0;exitDy=0;" edge="1" parent="1" source="JOWomHwI1RXDopmt0TdF-7">
          <mxGeometry relative="1" as="geometry">
            <mxPoint x="620" y="350" as="targetPoint" />
          </mxGeometry>
        </mxCell>
        <mxCell id="JOWomHwI1RXDopmt0TdF-26" style="edgeStyle=orthogonalEdgeStyle;rounded=0;orthogonalLoop=1;jettySize=auto;html=1;entryX=0.569;entryY=1.027;entryDx=0;entryDy=0;entryPerimeter=0;startArrow=classic;startFill=1;endArrow=none;endFill=0;" edge="1" parent="1" source="JOWomHwI1RXDopmt0TdF-6" target="JOWomHwI1RXDopmt0TdF-5">
          <mxGeometry relative="1" as="geometry">
            <Array as="points">
              <mxPoint x="480" y="470" />
            </Array>
          </mxGeometry>
        </mxCell>
        <mxCell id="JOWomHwI1RXDopmt0TdF-27" style="edgeStyle=orthogonalEdgeStyle;rounded=0;orthogonalLoop=1;jettySize=auto;html=1;entryX=0.429;entryY=1;entryDx=0;entryDy=0;entryPerimeter=0;startArrow=classic;startFill=1;endArrow=none;endFill=0;" edge="1" parent="1" source="JOWomHwI1RXDopmt0TdF-6" target="JOWomHwI1RXDopmt0TdF-4">
          <mxGeometry relative="1" as="geometry">
            <Array as="points">
              <mxPoint x="120" y="470" />
            </Array>
          </mxGeometry>
        </mxCell>
        <mxCell id="JOWomHwI1RXDopmt0TdF-33" value="" style="edgeStyle=orthogonalEdgeStyle;rounded=0;orthogonalLoop=1;jettySize=auto;html=1;startArrow=none;startFill=0;endArrow=classic;endFill=1;" edge="1" parent="1" source="JOWomHwI1RXDopmt0TdF-6" target="JOWomHwI1RXDopmt0TdF-7">
          <mxGeometry relative="1" as="geometry" />
        </mxCell>
        <mxCell id="JOWomHwI1RXDopmt0TdF-6" value="" style="rounded=0;whiteSpace=wrap;html=1;" vertex="1" parent="1">
          <mxGeometry x="190" y="440" width="230" height="60" as="geometry" />
        </mxCell>
        <mxCell id="JOWomHwI1RXDopmt0TdF-34" value="" style="edgeStyle=orthogonalEdgeStyle;rounded=0;orthogonalLoop=1;jettySize=auto;html=1;startArrow=none;startFill=0;endArrow=classic;endFill=1;" edge="1" parent="1" source="JOWomHwI1RXDopmt0TdF-7" target="JOWomHwI1RXDopmt0TdF-8">
          <mxGeometry relative="1" as="geometry" />
        </mxCell>
        <mxCell id="JOWomHwI1RXDopmt0TdF-7" value="" style="rounded=0;whiteSpace=wrap;html=1;" vertex="1" parent="1">
          <mxGeometry x="160" y="570" width="290" height="70" as="geometry" />
        </mxCell>
        <mxCell id="JOWomHwI1RXDopmt0TdF-23" style="edgeStyle=orthogonalEdgeStyle;rounded=0;orthogonalLoop=1;jettySize=auto;html=1;startArrow=classic;startFill=1;endArrow=none;endFill=0;" edge="1" parent="1" source="JOWomHwI1RXDopmt0TdF-8">
          <mxGeometry relative="1" as="geometry">
            <mxPoint x="640" y="350" as="targetPoint" />
            <Array as="points">
              <mxPoint x="640" y="725" />
              <mxPoint x="640" y="350" />
            </Array>
          </mxGeometry>
        </mxCell>
        <mxCell id="JOWomHwI1RXDopmt0TdF-28" style="edgeStyle=orthogonalEdgeStyle;rounded=0;orthogonalLoop=1;jettySize=auto;html=1;entryX=0.25;entryY=1;entryDx=0;entryDy=0;startArrow=classic;startFill=1;endArrow=none;endFill=0;" edge="1" parent="1" source="JOWomHwI1RXDopmt0TdF-8" target="JOWomHwI1RXDopmt0TdF-4">
          <mxGeometry relative="1" as="geometry">
            <Array as="points">
              <mxPoint x="83" y="725" />
            </Array>
          </mxGeometry>
        </mxCell>
        <mxCell id="JOWomHwI1RXDopmt0TdF-35" value="" style="edgeStyle=orthogonalEdgeStyle;rounded=0;orthogonalLoop=1;jettySize=auto;html=1;startArrow=none;startFill=0;endArrow=classic;endFill=1;" edge="1" parent="1" source="JOWomHwI1RXDopmt0TdF-8" target="JOWomHwI1RXDopmt0TdF-9">
          <mxGeometry relative="1" as="geometry" />
        </mxCell>
        <mxCell id="JOWomHwI1RXDopmt0TdF-8" value="" style="rounded=0;whiteSpace=wrap;html=1;" vertex="1" parent="1">
          <mxGeometry x="160" y="690" width="290" height="70" as="geometry" />
        </mxCell>
        <mxCell id="JOWomHwI1RXDopmt0TdF-9" value="" style="rounded=0;whiteSpace=wrap;html=1;" vertex="1" parent="1">
          <mxGeometry x="215" y="820" width="180" height="50" as="geometry" />
        </mxCell>
        <mxCell id="JOWomHwI1RXDopmt0TdF-14" style="edgeStyle=orthogonalEdgeStyle;rounded=0;orthogonalLoop=1;jettySize=auto;html=1;entryX=0;entryY=0.5;entryDx=0;entryDy=0;endArrow=none;endFill=0;" edge="1" parent="1" source="JOWomHwI1RXDopmt0TdF-10" target="JOWomHwI1RXDopmt0TdF-13">
          <mxGeometry relative="1" as="geometry">
            <Array as="points">
              <mxPoint x="670" y="240" />
              <mxPoint x="670" y="450" />
            </Array>
          </mxGeometry>
        </mxCell>
        <mxCell id="JOWomHwI1RXDopmt0TdF-17" style="edgeStyle=orthogonalEdgeStyle;rounded=0;orthogonalLoop=1;jettySize=auto;html=1;entryX=1;entryY=0.5;entryDx=0;entryDy=0;endArrow=none;endFill=0;" edge="1" parent="1" source="JOWomHwI1RXDopmt0TdF-10" target="JOWomHwI1RXDopmt0TdF-13">
          <mxGeometry relative="1" as="geometry">
            <Array as="points">
              <mxPoint x="890" y="240" />
              <mxPoint x="890" y="450" />
            </Array>
          </mxGeometry>
        </mxCell>
        <mxCell id="JOWomHwI1RXDopmt0TdF-10" value="" style="rounded=0;whiteSpace=wrap;html=1;" vertex="1" parent="1">
          <mxGeometry x="702" y="210" width="160" height="60" as="geometry" />
        </mxCell>
        <mxCell id="JOWomHwI1RXDopmt0TdF-15" style="edgeStyle=orthogonalEdgeStyle;rounded=0;orthogonalLoop=1;jettySize=auto;html=1;endArrow=none;endFill=0;" edge="1" parent="1" source="JOWomHwI1RXDopmt0TdF-11">
          <mxGeometry relative="1" as="geometry">
            <mxPoint x="670" y="310" as="targetPoint" />
          </mxGeometry>
        </mxCell>
        <mxCell id="JOWomHwI1RXDopmt0TdF-18" style="edgeStyle=orthogonalEdgeStyle;rounded=0;orthogonalLoop=1;jettySize=auto;html=1;endArrow=none;endFill=0;" edge="1" parent="1" source="JOWomHwI1RXDopmt0TdF-11">
          <mxGeometry relative="1" as="geometry">
            <mxPoint x="890" y="310" as="targetPoint" />
          </mxGeometry>
        </mxCell>
        <mxCell id="JOWomHwI1RXDopmt0TdF-11" value="" style="rounded=0;whiteSpace=wrap;html=1;" vertex="1" parent="1">
          <mxGeometry x="702" y="280" width="160" height="60" as="geometry" />
        </mxCell>
        <mxCell id="JOWomHwI1RXDopmt0TdF-16" style="edgeStyle=orthogonalEdgeStyle;rounded=0;orthogonalLoop=1;jettySize=auto;html=1;endArrow=none;endFill=0;" edge="1" parent="1" source="JOWomHwI1RXDopmt0TdF-12">
          <mxGeometry relative="1" as="geometry">
            <mxPoint x="670" y="380" as="targetPoint" />
          </mxGeometry>
        </mxCell>
        <mxCell id="JOWomHwI1RXDopmt0TdF-19" style="edgeStyle=orthogonalEdgeStyle;rounded=0;orthogonalLoop=1;jettySize=auto;html=1;endArrow=none;endFill=0;" edge="1" parent="1" source="JOWomHwI1RXDopmt0TdF-12">
          <mxGeometry relative="1" as="geometry">
            <mxPoint x="890" y="380" as="targetPoint" />
          </mxGeometry>
        </mxCell>
        <mxCell id="JOWomHwI1RXDopmt0TdF-12" value="" style="rounded=0;whiteSpace=wrap;html=1;" vertex="1" parent="1">
          <mxGeometry x="702" y="350" width="160" height="60" as="geometry" />
        </mxCell>
        <mxCell id="JOWomHwI1RXDopmt0TdF-36" style="edgeStyle=orthogonalEdgeStyle;rounded=0;orthogonalLoop=1;jettySize=auto;html=1;entryX=1;entryY=0.5;entryDx=0;entryDy=0;startArrow=none;startFill=0;endArrow=classic;endFill=1;" edge="1" parent="1" source="JOWomHwI1RXDopmt0TdF-13" target="JOWomHwI1RXDopmt0TdF-9">
          <mxGeometry relative="1" as="geometry">
            <Array as="points">
              <mxPoint x="780" y="845" />
            </Array>
          </mxGeometry>
        </mxCell>
        <mxCell id="JOWomHwI1RXDopmt0TdF-13" value="" style="rounded=0;whiteSpace=wrap;html=1;" vertex="1" parent="1">
          <mxGeometry x="702" y="420" width="160" height="60" as="geometry" />
        </mxCell>
      </root>
    </mxGraphModel>
  </diagram>
</mxfile>
